<svg width="22" height="21" viewBox="0 0 22 21" fill="none" xmlns="http://www.w3.org/2000/svg">
<path d="M19.4962 16.3874C19.1226 16.3548 18.8174 16.1972 18.5806 15.915C18.344 15.6331 18.2401 15.3259 18.2691 14.9938L19.0699 5.84028L2.27628 19.9319C1.98286 20.1781 1.65972 20.2857 1.30685 20.2549C0.954011 20.224 0.654445 20.0618 0.408229 19.7684C0.162013 19.475 0.0543436 19.1518 0.0852128 18.799C0.116086 18.4461 0.278235 18.1466 0.571663 17.9004L17.3653 3.8088L8.14955 3.00255C7.77594 2.96986 7.48115 2.81336 7.26515 2.533C7.04915 2.25268 6.95749 1.9257 6.99018 1.55209C7.0418 1.20105 7.20871 0.907149 7.49084 0.670412C7.773 0.433656 8.08012 0.329796 8.41222 0.358851L20.8037 1.44289C21.0112 1.46115 21.1849 1.50769 21.3247 1.58272C21.4645 1.65772 21.5914 1.76277 21.7051 1.89821C21.8187 2.03365 21.9002 2.17689 21.9497 2.32758C21.9994 2.47829 22.015 2.65747 21.997 2.86493L20.9184 15.1941C20.8856 15.5678 20.7338 15.8683 20.463 16.0955C20.1921 16.3228 19.8698 16.4201 19.4962 16.3874Z" fill="white"/>
</svg>
