<svg width="54" height="173" viewBox="0 0 54 173" fill="none" xmlns="http://www.w3.org/2000/svg">
<g clip-path="url(#clip0_4_3794)">
<path d="M0 0.828125H53.0644V172.186H0V0.828125Z" fill="none"/>
<path d="M20.0422 154.413V152.411L26.7922 148.654H20.0422V146.754H30.2692V148.756L23.5192 152.513H30.2692V154.413H20.0422ZM29.8903 143.21C29.5712 143.763 29.0995 144.212 28.5317 144.503C27.9569 144.8 27.3091 144.949 26.5883 144.949C25.8675 144.949 25.2197 144.8 24.6448 144.503C24.077 144.212 23.6053 143.763 23.2862 143.21C22.9553 142.646 22.7894 141.978 22.7894 141.207C22.7894 140.438 22.9553 139.77 23.2862 139.205C23.6058 138.652 24.0774 138.203 24.6448 137.911C25.2197 137.614 25.8685 137.466 26.5883 137.466C27.3101 137.466 27.9569 137.614 28.5317 137.911C29.0993 138.203 29.571 138.652 29.8903 139.205C30.2202 139.77 30.3862 140.438 30.3862 141.207C30.3872 141.977 30.2202 142.645 29.8903 143.21ZM28.1878 139.862C27.7529 139.531 27.2211 139.365 26.5873 139.365C25.9535 139.365 25.4206 139.531 24.9867 139.862C24.5529 140.194 24.3369 140.642 24.3369 141.207C24.3369 141.772 24.5539 142.221 24.9867 142.553C25.4206 142.883 25.9535 143.049 26.5873 143.049C27.2211 143.049 27.7529 142.883 28.1878 142.553C28.6217 142.221 28.8366 141.773 28.8366 141.207C28.8376 140.642 28.6217 140.194 28.1878 139.862ZM22.9054 135.824V134.012H24.09C23.6601 133.729 23.3382 133.419 23.1173 133.083C22.8984 132.747 22.7884 132.351 22.7884 131.893C22.7884 131.414 22.9154 130.991 23.1683 130.621C23.4222 130.251 23.8031 129.988 24.3089 129.831C23.8311 129.569 23.4582 129.24 23.1913 128.846C22.9315 128.475 22.7913 128.034 22.7894 127.581C22.7894 126.899 22.9893 126.363 23.3882 125.974C23.7881 125.583 24.3449 125.389 25.0557 125.389H30.2722V127.201H25.3626C24.6808 127.201 24.3399 127.504 24.3399 128.108C24.3399 128.575 24.6039 128.958 25.1287 129.254C25.6556 129.553 26.4143 129.7 27.408 129.7H30.2722V131.513H25.3626C24.6808 131.513 24.3399 131.816 24.3399 132.419C24.3399 132.887 24.6149 133.27 25.1657 133.566C25.7165 133.864 26.5173 134.012 27.569 134.012H30.2722V135.824H22.9054ZM21.6197 123.285C21.3948 123.509 21.1179 123.621 20.787 123.621C20.4561 123.621 20.1792 123.509 19.9542 123.285C19.8442 123.177 19.7576 123.047 19.6998 122.903C19.642 122.76 19.6143 122.606 19.6183 122.452C19.6183 122.121 19.7293 121.843 19.9542 121.619C20.1792 121.394 20.4561 121.283 20.787 121.283C21.1179 121.283 21.3948 121.394 21.6197 121.619C21.8447 121.843 21.9566 122.121 21.9566 122.452C21.9566 122.784 21.8447 123.06 21.6197 123.285ZM22.9054 121.546H30.2692V123.359H22.9054V121.546ZM22.9054 119.496V117.684H24.09C23.7062 117.418 23.3823 117.074 23.1393 116.675C22.9075 116.291 22.786 115.851 22.7884 115.403C22.7884 114.722 22.9783 114.174 23.3582 113.759C23.7381 113.345 24.289 113.138 25.0087 113.138H30.2702V114.95H25.5496C25.1317 114.95 24.8228 115.046 24.6299 115.235C24.4349 115.425 24.3369 115.682 24.3369 116.004C24.3369 116.306 24.4529 116.584 24.6878 116.837C24.9208 117.091 25.2647 117.295 25.7175 117.45C26.1704 117.606 26.7092 117.684 27.3321 117.684H30.2692V119.496H22.9054ZM29.8243 109.957C29.467 110.474 28.9707 110.879 28.3927 111.126C27.8231 111.373 27.209 111.499 26.5883 111.499C25.9669 111.5 25.3521 111.373 24.7818 111.126C24.203 110.878 23.7251 110.488 23.3502 109.957C22.9753 109.426 22.7874 108.761 22.7874 107.962C22.7874 107.191 22.9703 106.549 23.3362 106.032C23.6819 105.531 24.1603 105.136 24.7178 104.891C25.2557 104.652 25.8377 104.528 26.4263 104.527H27.1721V109.598C27.619 109.578 28.0099 109.415 28.3398 109.108C28.6717 108.801 28.8376 108.384 28.8376 107.86C28.8376 107.45 28.7446 107.106 28.5607 106.829C28.3748 106.551 28.0878 106.3 27.6979 106.076L28.2398 104.614C28.9296 104.917 29.4634 105.338 29.8313 105.879C30.2022 106.42 30.3872 107.114 30.3872 107.962C30.3872 108.761 30.1992 109.426 29.8243 109.957ZM25.7405 106.383C25.3306 106.471 24.9947 106.644 24.7318 106.903C24.4699 107.161 24.3369 107.513 24.3369 107.963C24.3369 108.391 24.4739 108.747 24.7458 109.03C25.0177 109.312 25.3496 109.488 25.7395 109.555L25.7405 106.383ZM29.8243 101.706C29.4494 102.237 28.9726 102.627 28.3927 102.875C27.8227 103.121 27.2083 103.249 26.5873 103.249C25.9663 103.249 25.3518 103.121 24.7818 102.875C24.203 102.627 23.7251 102.237 23.3502 101.706C22.9753 101.175 22.7874 100.51 22.7874 99.711C22.7874 98.941 22.9703 98.299 23.3362 97.781C23.682 97.28 24.1604 96.8853 24.7178 96.641C25.2556 96.4015 25.8376 96.2771 26.4263 96.276H27.1721V101.348C27.6079 101.332 28.023 101.158 28.3398 100.858C28.6717 100.551 28.8376 100.134 28.8376 99.609C28.8376 99.199 28.7446 98.856 28.5607 98.578C28.3748 98.301 28.0878 98.05 27.6979 97.825L28.2398 96.363C28.9296 96.665 29.4634 97.087 29.8313 97.628C30.2022 98.169 30.3872 98.862 30.3872 99.711C30.3872 100.51 30.1992 101.175 29.8243 101.706ZM25.7405 98.133C25.3306 98.221 24.9947 98.394 24.7318 98.652C24.4699 98.91 24.3369 99.263 24.3369 99.712C24.3369 100.141 24.4739 100.496 24.7458 100.779C25.0177 101.061 25.3496 101.237 25.7395 101.305L25.7405 98.133ZM35.4707 17.7541L30.6901 32.7231H27.425L24.8418 23.0411L22.2585 32.7231H18.9915L14.2119 17.7541H17.9238L20.596 28.0301L23.1193 17.7541H26.5633L29.0865 28.0301L31.7598 17.7541H35.4707ZM37.9679 27.9111C39.3935 27.9111 40.4622 28.9791 40.4622 30.4061C40.4622 31.8311 39.3935 32.9011 37.9679 32.9011C36.5433 32.9011 35.4737 31.8311 35.4737 30.4061C35.4727 28.9791 36.5433 27.9111 37.9679 27.9111Z" fill="white"/>
</g>
<defs>
<clipPath id="clip0_4_3794">
<rect width="53.0625" height="171.344" fill="white" transform="translate(0 0.828125)"/>
</clipPath>
</defs>
</svg>
